<?xml version="1.0" encoding="UTF-8"?>
<svg width="20px" height="20px" viewBox="0 0 20 20" version="1.1" xmlns="http://www.w3.org/2000/svg"
    xmlns:xlink="http://www.w3.org/1999/xlink">
    <g id="Artboard-Copy-4" stroke="none" stroke-width="1" fill="none" fill-rule="evenodd">
        <g id="round-clear-24px">
            <polygon id="Path" points="0 0 20 0 20 20 0 20"></polygon>
            <path
                d="M15.25,4.75833333 C14.925,4.43333333 14.4,4.43333333 14.075,4.75833333 L10,8.825 L5.925,4.75 C5.6,4.425 5.075,4.425 4.75,4.75 C4.425,5.075 4.425,5.6 4.75,5.925 L8.825,10 L4.75,14.075 C4.425,14.4 4.425,14.925 4.75,15.25 C5.075,15.575 5.6,15.575 5.925,15.25 L10,11.175 L14.075,15.25 C14.4,15.575 14.925,15.575 15.25,15.25 C15.575,14.925 15.575,14.4 15.25,14.075 L11.175,10 L15.25,5.925 C15.5666667,5.60833333 15.5666667,5.075 15.25,4.75833333 Z"
                id="Path" fill="black" fill-rule="nonzero"></path>
        </g>
    </g>
</svg>