<?xml version="1.0" encoding="UTF-8"?>
<svg width="24px" height="24px" viewBox="0 0 24 24" version="1.1" xmlns="http://www.w3.org/2000/svg" xmlns:xlink="http://www.w3.org/1999/xlink">
    <title>facebook</title>
    <defs>
        <filter id="filter-1">
            <feColorMatrix in="SourceGraphic" type="matrix" values="0 0 0 0 0.811765 0 0 0 0 0.811765 0 0 0 0 0.811765 0 0 0 1.000000 0"></feColorMatrix>
        </filter>
    </defs>
    <g id="blog-2021-website" stroke="none" stroke-width="1" fill="none" fill-rule="evenodd">
        <g id="MB_website_2021_blog-(1440)-article-view-(EN)" transform="translate(-1180.000000, -878.000000)">
            <g id="Group-16" transform="translate(903.000000, 180.000000)">
                <g id="facebook" transform="translate(1.500000, 698.000000)" filter="url(#filter-1)">
                    <g transform="translate(275.500000, 0.000000)">
                        <path d="M22.269104,0 C23.2250977,0 24,0.774902344 24,1.73089598 L24,1.73089598 L24,22.269104 C24,23.2250977 23.2250977,24 22.269104,24 L22.269104,24 L1.73089598,24 C0.774902344,24 0,23.2250977 0,22.269104 L0,22.269104 L0,1.73089598 C0,0.774902344 0.774902344,0 1.73089598,0 L1.73089598,0 Z M13.7799073,5 C11.6241606,5 10.2310223,6.35232983 10.2310223,8.44541889 L10.2310223,10.0339877 L8.30171833,10.0339877 C8.13500356,10.0339877 8,10.1618655 8,10.3196009 L8,12.6212561 C8,12.7789915 8.1351575,12.9067237 8.30171833,12.9067237 L10.2310223,12.9067237 L10.2310223,18.7145324 C10.2310223,18.8722678 10.3660259,19 10.5327407,19 L13.0499336,19 C13.2166484,19 13.3516519,18.8721222 13.3516519,18.7145324 L13.3516519,12.9067237 L15.6074583,12.9067237 C15.7741731,12.9067237 15.9091766,12.7789915 15.9091766,12.6212561 L15.9101003,10.3196009 C15.9101003,10.2438646 15.8782351,10.1713326 15.8217399,10.1177346 C15.7652447,10.0641366 15.6882757,10.0339877 15.608228,10.0339877 L13.3516519,10.0339877 L13.3516519,8.6873381 C13.3516519,8.04008406 13.5146722,7.71150505 14.4058189,7.71150505 L15.6984356,7.71106811 C15.8649964,7.71106811 16,7.58319029 16,7.42560053 L16,5.28838051 C16,5.1309364 15.8651504,5.00320423 15.6987435,5.00291293 L13.7799073,5 Z" id="Combined-Shape" fill="#000000" fill-rule="nonzero"></path>
                    </g>
                </g>
            </g>
        </g>
    </g>
</svg>