<?xml version="1.0" encoding="UTF-8"?>
<svg width="24px" height="24px" viewBox="0 0 24 24" version="1.1" xmlns="http://www.w3.org/2000/svg" xmlns:xlink="http://www.w3.org/1999/xlink">
    <title>linkedin</title>
    <defs>
        <filter id="filter-1">
            <feColorMatrix in="SourceGraphic" type="matrix" values="0 0 0 0 0.811765 0 0 0 0 0.811765 0 0 0 0 0.811765 0 0 0 1.000000 0"></feColorMatrix>
        </filter>
    </defs>
    <g id="blog-2021-website" stroke="none" stroke-width="1" fill="none" fill-rule="evenodd">
        <g id="MB_website_2021_blog-(1440)-article-view-(EN)" transform="translate(-1116.000000, -878.000000)">
            <g id="Group-16" transform="translate(903.000000, 180.000000)">
                <g id="linkedin" transform="translate(1.500000, 698.000000)" filter="url(#filter-1)">
                    <g transform="translate(211.500000, 0.000000)">
                        <path d="M22.269104,-1.33226763e-15 L1.73089598,-1.33226763e-15 C0.774902344,-1.33226763e-15 1.33226763e-15,0.774902344 1.33226763e-15,1.73089598 L1.33226763e-15,22.269104 C1.33226763e-15,23.2250977 0.774902344,24 1.73089598,24 L22.269104,24 C23.2250977,24 24,23.2250977 24,22.269104 L24,1.73089598 C24,0.774902344 23.2250977,-1.33226763e-15 22.269104,-1.33226763e-15 Z M8.51293945,18.140625 L5.59039308,18.140625 L5.59039308,9.34808348 L8.51293945,9.34808348 L8.51293945,18.140625 Z M7.05175781,8.14746094 L7.03271484,8.14746094 C6.05200195,8.14746094 5.41772461,7.47235106 5.41772461,6.62860106 C5.41772461,5.76580809 6.07141116,5.109375 7.07116697,5.109375 C8.07092288,5.109375 8.68615725,5.76580809 8.70520022,6.62860106 C8.70520022,7.47235106 8.07092288,8.14746094 7.05175781,8.14746094 Z M19.0510254,18.140625 L16.1288452,18.140625 L16.1288452,13.4368286 C16.1288452,12.2546997 15.7056885,11.4484863 14.6482544,11.4484863 C13.8409424,11.4484863 13.3601074,11.9923096 13.1488037,12.5172729 C13.0715332,12.7051392 13.0526733,12.9677124 13.0526733,13.2304687 L13.0526733,18.140625 L10.13031,18.140625 C10.13031,18.140625 10.1685791,10.1729737 10.13031,9.34808348 L13.0526733,9.34808348 L13.0526733,10.5930176 C13.4410401,9.99389648 14.1359253,9.14172366 15.6864624,9.14172366 C17.6092529,9.14172366 19.0510254,10.3983765 19.0510254,13.098999 L19.0510254,18.140625 Z" id="Shape" fill="#000000" fill-rule="nonzero"></path>
                    </g>
                </g>
            </g>
        </g>
    </g>
</svg>