<?xml version="1.0" encoding="UTF-8"?>
<svg width="95px" height="40px" viewBox="0 0 95 40" version="1.1" xmlns="http://www.w3.org/2000/svg" xmlns:xlink="http://www.w3.org/1999/xlink">
    <title>for light background copy</title>
    <g id="for-light-background-copy" stroke="none" stroke-width="1" fill="none" fill-rule="evenodd">
        <g id="Group-34-Copy">
            <rect id="Rectangle-Copy-11" fill="#F7CA18" x="0" y="0.252275989" width="1.44456946" height="39.0068949"></rect>
            <path d="M36.8708727,15.613737 C43.8637065,15.613737 47.4590786,20.1097103 47.4590786,26.159439 L47.4590786,29.1347154 C47.4590786,35.1844441 43.8637065,39.6804173 36.8708727,39.6804173 C29.8780389,39.6804173 26.2826668,35.1844441 26.2826668,29.1347154 L26.2826668,26.159439 C26.2826668,20.1097103 29.8780389,15.613737 36.8708727,15.613737 Z M15.4305804,16.0765578 C19.784609,16.0765578 22.0935635,18.721248 22.0935635,21.994052 C22.0935635,24.4403904 21.1040116,26.159439 19.0589376,27.2503737 C21.5658025,27.9446048 23.5119213,29.4983603 23.5119213,32.7381057 C23.5119213,36.7051409 20.1144596,39.2175965 15.5625207,39.2175965 L4.38058362,39.2175965 L4.38058362,16.0765578 L15.4305804,16.0765578 Z M62.2034026,16.0765578 C67.8108637,16.0765578 70.8454897,19.514655 70.8454897,24.2420386 C70.8454897,27.5479013 69.2292215,30.1264742 66.5574312,31.4157606 L71.2742955,39.2175965 L64.6772825,39.2175965 L60.7520598,32.3414022 L57.0247474,32.3414022 L57.0247474,39.2175965 L51.3513162,39.2175965 L51.3513162,16.0765578 L62.2034026,16.0765578 Z M80.1142929,16.0765578 L88.789365,29.5975362 L88.789365,16.0765578 L94.330856,16.0765578 L94.330856,39.2175965 L88.9213053,39.2175965 L80.2792183,25.6966182 L80.2792183,39.2175965 L74.7377273,39.2175965 L74.7377273,16.0765578 L80.1142929,16.0765578 Z M36.8708727,20.3411207 C33.5723662,20.3411207 31.956098,22.5560487 31.956098,25.8619113 L31.956098,29.432243 C31.956098,32.7381057 33.5723662,34.9530337 36.8708727,34.9530337 C40.1693792,34.9530337 41.7856474,32.7381057 41.7856474,29.432243 L41.7856474,25.8619113 C41.7856474,22.5560487 40.1693792,20.3411207 36.8708727,20.3411207 Z M15.2656551,29.7297707 L9.92207454,29.7297707 L9.92207454,34.7546819 L15.3646103,34.7546819 C16.9808785,34.7546819 17.9044603,33.6968059 17.9044603,32.2091677 C17.9044603,30.6554122 16.9149083,29.7297707 15.2656551,29.7297707 Z M61.5437013,20.6386483 L57.0247474,20.6386483 L57.0247474,27.8454289 L61.5437013,27.8454289 C63.918626,27.8454289 65.1720585,26.423908 65.1720585,24.3081559 C65.1720585,22.0932279 63.918626,20.6386483 61.5437013,20.6386483 Z M14.0781927,20.5394724 L9.92207454,20.5394724 L9.92207454,25.2999147 L14.1441629,25.2999147 C15.6284908,25.2999147 16.4531174,24.3412145 16.4531174,22.8205177 C16.4531174,21.3989967 15.5625207,20.5394724 14.0781927,20.5394724 Z" id="Combined-Shape" fill="#0D0E0F" fill-rule="nonzero"></path>
            <polygon id="Path" fill="#0D0E0F" fill-rule="nonzero" points="10.5296124 7.11778684 13.8558414 0.252275989 16.6966207 0.252275989 16.6966207 12.8660754 13.7299841 12.8660754 13.7299841 6.19878145 11.7522263 10.0550001 9.30699847 10.0550001 7.3472203 6.19878145 7.3472203 12.8660754 4.38058362 12.8660754 4.38058362 0.252275989 7.22136298 0.252275989"></polygon>
            <path d="M29.4366273,0.252275989 L33.9315313,12.8660754 L30.8390373,12.8660754 L30.1198527,10.5235127 L25.5710098,10.5235127 L24.8698047,12.8660754 L21.7773108,12.8660754 L26.2722148,0.252275989 L29.4366273,0.252275989 Z M27.854421,3.04533158 L26.3261537,8.03679222 L29.3647088,8.03679222 L27.854421,3.04533158 Z" id="Combined-Shape" fill="#0D0E0F" fill-rule="nonzero"></path>
            <path d="M49.2066637,8.99183704 C49.2066637,11.5145969 46.9771913,13.1183514 44.0644935,13.1183514 C41.043918,13.1183514 39.0122213,11.6767744 39.0122213,9.13599475 L39.0122213,8.79362019 L41.978858,8.79362019 L41.978858,9.04589618 C41.978858,10.1090593 42.6620834,10.757769 44.0824731,10.757769 C45.3590259,10.757769 46.2040678,10.2351973 46.2040678,9.26213274 C46.2040678,8.70352162 45.9703328,8.30708793 45.3410463,8.14491051 L42.1946134,7.35204311 C40.2348352,6.86551085 39.2279767,6.0005646 39.2279767,3.94631726 C39.2279767,1.44157708 41.0079587,2.20391667e-15 43.992575,2.20391667e-15 C46.8153748,2.20391667e-15 48.6133364,1.53167565 48.6133364,3.83819898 L48.6133364,4.14453411 L45.7545774,4.14453411 L45.7545774,3.92829754 C45.7545774,3.08137101 45.2871074,2.37860218 43.992575,2.37860218 C42.9137981,2.37860218 42.2305726,2.75701617 42.2305726,3.65800184 C42.2305726,4.25265239 42.5362261,4.55898752 43.0396554,4.68512551 L46.383864,5.58611119 C48.397581,6.12670259 49.2066637,7.24392483 49.2066637,8.99183704 Z" id="Path" fill="#0D0E0F" fill-rule="nonzero"></path>
            <polygon id="Path" fill="#0D0E0F" fill-rule="nonzero" points="54.2873538 0.252275989 64.1761427 0.252275989 64.1761427 2.86513445 60.7779952 2.86513445 60.7779952 12.8660754 57.6855012 12.8660754 57.6855012 2.86513445 54.2873538 2.86513445"></polygon>
            <polygon id="Path" fill="#0D0E0F" fill-rule="nonzero" points="69.2568327 12.8660754 69.2568327 0.252275989 78.3724981 0.252275989 78.3724981 2.82909502 72.3493267 2.82909502 72.3493267 5.18967749 77.8331097 5.18967749 77.8331097 7.76649652 72.3493267 7.76649652 72.3493267 10.2892564 78.3904778 10.2892564 78.3904778 12.8660754"></polygon>
            <path d="M89.3864615,0.252275989 C92.4429963,0.252275989 94.097121,2.12632619 94.097121,4.70314523 C94.097121,6.50511658 93.2161198,7.91065423 91.7597709,8.61342306 L94.330856,12.8660754 L90.7349327,12.8660754 L88.5953584,9.11797504 L86.5636618,9.11797504 L86.5636618,12.8660754 L83.4711678,12.8660754 L83.4711678,0.252275989 L89.3864615,0.252275989 Z M89.0268692,2.73899645 L86.5636618,2.73899645 L86.5636618,6.667294 L89.0268692,6.667294 C90.3214016,6.667294 91.004627,5.89244632 91.004627,4.73918465 C91.004627,3.53186385 90.3214016,2.73899645 89.0268692,2.73899645 Z" id="Combined-Shape" fill="#0D0E0F" fill-rule="nonzero"></path>
        </g>
    </g>
</svg>