<?xml version="1.0" encoding="utf-8"?>
<!-- Generator: Adobe Illustrator 25.0.1, SVG Export Plug-In . SVG Version: 6.00 Build 0)  -->
<svg version="1.1" id="Layer_1" xmlns="http://www.w3.org/2000/svg" xmlns:xlink="http://www.w3.org/1999/xlink" x="0px" y="0px"
	 viewBox="0 0 720 300" style="enable-background:new 0 0 720 300;" xml:space="preserve">
<style type="text/css">
	.st0{fill:#101010;}
	.st1{fill:#F7CA18;}
</style>
<g>
	<polygon class="st0" points="720.1,123.9 720.1,296.3 685.7,296.3 622.8,193.4 622.3,193.4 622.3,296.3 584.2,296.3 584.2,123.9 
		618.5,123.9 681.5,226.8 682,226.8 682,123.9 	"/>
	<g>
		<path class="st0" d="M460.4,239.3v57h-38.8V123.9H485c23.2,0,39.8,4.5,49.6,13.4c9.9,8.9,14.8,23.7,14.8,44.3v0.5
			c0,26.7-11.6,44.1-34.8,52.2l40.8,62h-41.5l-37.1-57H460.4z M459.9,205.6h25.4c9.3,0,15.9-2,19.8-5.9c3.9-3.9,5.8-9.8,5.8-17.6
			v-0.5c0-7.8-2-13.6-5.8-17.4c-3.9-3.7-10.5-5.6-19.8-5.6h-25.4V205.6z"/>
		<path class="st0" d="M311.5,299.8c-50.8,0-76.1-29.8-76.1-89.4v-0.5c0-59.6,25.4-89.4,76.1-89.4c50.8,0,76.1,29.8,76.1,89.4v0.5
			C387.7,270,362.3,299.8,311.5,299.8 M282.9,251.7c5.5,9.1,15,13.6,28.6,13.6c13.6,0,23.1-4.5,28.6-13.6c5.5-9.1,8.2-22.9,8.2-41.3
			v-0.5c0-18.5-2.7-32.3-8.2-41.3c-5.5-9.1-15-13.6-28.6-13.6c-13.6,0-23.1,4.5-28.6,13.6c-5.5,9.1-8.2,22.9-8.2,41.3v0.5
			C274.7,228.8,277.4,242.6,282.9,251.7"/>
		<path class="st0" d="M80.1,296.3V123.9h62.2c21.2,0,36.9,3.7,47.2,11c10.2,7.3,15.3,19.1,15.3,35.2v0.5c0,9.3-2.4,17.3-7.1,24
			c-4.7,6.7-10.2,11-16.3,13v0.5c7.8,2.2,14.3,6.5,19.7,13.1c5.3,6.6,8,14.7,8,24.4v0.5c0,33.5-21.3,50.2-63.9,50.2H80.1z
			 M118.1,156.9v35.2h26.4c8.1,0,13.8-1.3,16.9-4c3.1-2.7,4.7-7.5,4.7-14.5v-0.5c0-6.2-1.9-10.4-5.7-12.7c-3.8-2.3-9.7-3.5-17.7-3.5
			H118.1z M118.1,223.6v39.7h27.4c16.6,0,24.9-6.6,24.9-19.7v-0.5c0-7-1.9-12-5.7-15c-3.8-3-10.3-4.5-19.4-4.5H118.1z"/>
		<path class="st0" d="M673.3,60v27.7H650v-86h33.9c12,0,20.5,2.3,25.6,6.9c5.1,4.6,7.6,12.1,7.6,22.5v0.2c0,13.4-5.5,22-16.4,25.8
			l19.4,30.5h-24.6L678.7,60H673.3z M673,42h10.4c4,0,6.7-0.9,8.2-2.7c1.5-1.8,2.3-4.5,2.3-8v-0.2c0-3.7-0.7-6.3-2.2-7.8
			c-1.5-1.6-4.3-2.4-8.3-2.4H673V42z"/>
		<polygon class="st0" points="609.6,1.7 609.6,21.3 574.2,21.3 574.2,34.7 606.2,34.7 606.2,53.1 574.2,53.1 574.2,67.9 
			610.1,67.9 610.1,87.6 550.7,87.6 550.7,1.7 		"/>
		<polygon class="st0" points="510.9,1.7 510.9,22 487.3,22 487.3,87.6 464,87.6 464,22 440.5,22 440.5,1.7 		"/>
		<path class="st0" d="M366.8,54l-7.3-1.2c-10.2-1.9-17.6-4.8-22.1-8.8c-4.6-3.9-6.9-10.1-6.9-18.5v-0.2c0-16.9,11.1-25.4,33.2-25.4
			c11.7,0,20.1,2.2,25.4,6.6c5.2,4.4,8.1,10.9,8.6,19.6h-22.6c-0.5-5.1-4.2-7.6-11.2-7.6c-7,0-10.5,2.2-10.5,6.6v0.2
			c0,2.2,1,3.9,3,5.1c2,1.2,5.4,2.3,10.2,3.2l7.9,1.5c9.2,1.7,15.8,4.5,20,8.5c4.1,4,6.2,9.8,6.2,17.4v0.2c0,9.9-3,17.1-8.9,21.5
			c-6,4.5-14.7,6.7-26.2,6.7c-12.1,0-21.1-2.5-27.1-7.5c-6-5-9.2-12.8-9.6-23.2h22.6c0.3,3.9,1.7,6.9,4.1,9c2.4,2.1,5.7,3.1,9.9,3.1
			c4.5,0,7.7-0.6,9.6-1.9c1.8-1.3,2.7-3.4,2.7-6.3v-0.2c0-2.1-0.8-3.8-2.4-5C373.8,56,371,54.9,366.8,54"/>
		<path class="st0" d="M235.3,1.7h24.3l29.4,86h-23.7l-4.6-16.1h-26.5l-4.7,16.1h-23.7L235.3,1.7z M239.5,53.6h15.8l-7.7-28.2h-0.2
			L239.5,53.6z"/>
		<polygon class="st0" points="128.1,68.8 117.8,68.8 103.2,39 102.9,39 102.9,87.6 80.1,87.6 80.1,1.7 104.4,1.7 123,39.5 
			141.6,1.7 165.9,1.7 165.9,87.6 143.1,87.6 143.1,39 142.9,39 		"/>
		<rect x="0.1" y="1.7" class="st1" width="34.3" height="294.6"/>
	</g>
</g>
</svg>
