<svg xmlns="http://www.w3.org/2000/svg" width="17" height="19" viewBox="0 0 17 19">
    <defs>
        <filter id="rflvs7ymha">
            <feColorMatrix in="SourceGraphic" values="0 0 0 0 0.968627 0 0 0 0 0.792157 0 0 0 0 0.094118 0 0 0 1.000000 0"/>
        </filter>
    </defs>
    <g fill="none" fill-rule="evenodd">
        <g>
            <g>
                <g>
                    <g>
                        <g>
                            <g fill="#000" fill-rule="nonzero" filter="url(#rflvs7ymha)" transform="translate(-1027 -5436) translate(0 5277) translate(1027 102) translate(0 .46) translate(0 55.85) translate(0 .94)">
                                <path d="M12.848 15.886c-.113 0-.225-.025-.325-.076l-3.604-1.848-3.603 1.848c-.238.123-.528.102-.746-.054-.217-.156-.325-.42-.278-.68l.706-3.897-2.91-2.77c-.186-.18-.254-.447-.177-.692.083-.251.305-.434.572-.47l4.027-.575L8.284 3.12c.118-.239.365-.39.635-.39.271 0 .518.151.636.39l1.795 3.545 4.027.574c.267.037.489.22.572.471.077.245.009.511-.176.692l-2.911 2.77.706 3.897c.052.265-.059.535-.282.693-.128.087-.282.131-.438.124z"/>
                            </g>
                        </g>
                    </g>
                </g>
            </g>
        </g>
    </g>
</svg>
