<svg width="70" height="20" viewBox="0 0 70 20" fill="none" xmlns="http://www.w3.org/2000/svg">
<path d="M18.2002 0.119873H21.4202V19.9999H18.2002V0.119873Z" fill="#A0A7AB"/>
<path d="M32.6198 13.6998C32.6198 16.7798 30.0998 17.0598 29.2598 17.0598C27.2998 17.0598 27.0198 15.2398 27.0198 14.2598V6.55981H23.7998V14.1198C23.7998 15.9398 24.3598 17.6198 25.4798 18.5998C26.4598 19.5798 27.7198 19.9998 29.2598 19.9998C30.3798 19.9998 31.7798 19.7198 32.6198 18.8798V19.9998H35.8398V6.55981H32.6198V13.6998Z" fill="#A0A7AB"/>
<path d="M42.14 1.65991H38.92V6.55992H36.54V9.63992H38.92V19.9999H42.14V9.63992H44.52V6.55992H42.14V1.65991Z" fill="#A0A7AB"/>
<path d="M54.5991 15.9398C53.8991 16.4998 52.9191 16.9198 51.9391 16.9198C49.6991 16.9198 48.1591 15.2398 48.1591 12.9998C48.1591 10.7598 49.6991 9.21979 51.9391 9.21979C52.9191 9.21979 53.8991 9.49979 54.5991 10.1998L55.0191 10.6198L57.2591 8.51979L56.6991 8.09979C55.4391 6.97979 53.7591 6.27979 51.9391 6.27979C48.0191 6.27979 45.0791 9.21979 45.0791 13.1398C45.0791 17.0598 48.0191 19.9998 51.9391 19.9998C53.7591 19.9998 55.4391 19.2998 56.6991 18.1798L57.2591 17.7598L55.0191 15.5198L54.5991 15.9398Z" fill="#A0A7AB"/>
<path d="M68.6008 7.67988C67.6208 6.69988 66.6408 6.27988 65.1008 6.27988C63.9808 6.27988 62.8608 6.55988 62.0208 7.39988V0.119873H58.8008V19.9999H62.0208V12.5799C62.0208 9.49988 64.1208 9.21988 64.9608 9.21988C66.9208 9.21988 66.7808 11.0399 66.7808 12.0199V19.8599H70.0008V12.1599C70.0008 10.3399 69.5808 8.65988 68.6008 7.67988Z" fill="#A0A7AB"/>
<circle cx="51.7996" cy="13.1399" r="2.24" fill="#A0A7AB"/>
<path d="M13.72 15.0998C12.6 16.2198 10.92 16.9198 9.10001 16.9198C5.60001 16.9198 3.08 14.1198 3.08 10.3398C3.08 6.55981 5.60001 3.75981 9.24001 3.75981C10.92 3.75981 12.6 4.45981 13.86 5.71981L14.28 6.13981L16.38 4.03981L15.96 3.61981C14.14 1.79981 11.76 0.819806 9.24001 0.819806C3.92001 0.679806 0 4.87981 0 10.3398C0 15.7998 3.92001 19.9998 9.10001 19.9998C11.62 19.9998 14.14 19.0198 15.82 17.1998L16.24 16.7798L14.14 14.6798L13.72 15.0998Z" fill="#A0A7AB"/>
</svg>
