<svg width="76" height="18" viewBox="0 0 76 18" fill="none" xmlns="http://www.w3.org/2000/svg">
<path d="M75.1973 12.465C74.9617 12.2994 74.7749 12.276 74.6206 12.591C71.9729 18.1413 67.5142 15.3702 67.9609 15.6141C68.9517 15.1731 71.5507 13.1576 71.1608 10.3627C70.9253 8.65436 69.4146 7.89853 67.8066 8.17393C65.0047 8.64644 63.9814 11.5752 64.5011 14.1654C64.5904 14.6142 64.7529 14.9763 64.9235 15.3385C61.7642 17.8342 60.5054 13.1105 60.3591 12.5436C60.3511 12.5121 62.8038 10.5359 63.486 5.82007C64.2007 0.88355 62.5763 -0.0218531 60.9115 0.00964702C57.8335 0.0647272 57.005 6.29239 58.1176 11.4807C58.0283 11.5043 57.5897 11.7405 56.8913 11.7642C56.3878 10.2288 54.2355 8.8826 53.6751 9.40226C52.2701 10.7013 54.0162 13.2363 55.2508 13.4332C54.5116 17.85 49.8824 16.7556 50.7432 11.221C52.2458 8.51252 53.399 4.47366 53.1879 2.04095C53.1147 1.18253 52.4569 0.0254871 50.9707 0.0805673C48.1119 0.190728 47.8033 6.41839 48.1363 10.843C48.1201 10.7328 47.9576 11.3783 46.788 11.7012C46.5119 10.2132 44.0349 8.70944 43.4502 9.43376C42.3619 10.7802 44.2542 13.1814 45.1475 13.3466C44.4085 17.7635 39.7793 16.6691 40.6401 11.1344C42.1508 8.42594 43.2959 4.395 43.0928 1.96229C43.0198 1.10405 42.3619 -0.0533532 40.8756 0.001907C38.0168 0.112067 37.7082 6.33973 38.0413 10.7641C38.025 10.654 37.8625 11.3232 36.6442 11.6382C36.6038 9.70142 34.1186 8.8196 33.5176 9.43376C32.4536 10.5359 33.7612 12.7955 34.9713 13.3466C34.2322 17.7635 29.603 16.6691 30.4638 11.1344C31.9664 8.42594 33.1196 4.38708 32.9085 1.95437C32.8435 1.10405 32.1857 -0.0533532 30.6993 0.001907C27.8405 0.112067 27.6133 6.65455 27.9462 11.0791C27.004 14.9922 23.8448 19.8734 24.2589 10.0873C24.2996 9.40226 24.3402 9.14234 23.991 8.8826C23.723 8.68586 23.122 8.78018 22.797 8.7881C22.3991 8.80394 22.2937 9.03218 22.2123 9.37076C22.0094 10.2526 21.9687 11.1106 21.9362 12.2837C21.9201 12.8349 21.8712 13.0869 21.6519 13.8348C21.4327 14.5827 20.1982 15.9447 19.5161 15.7165C18.5739 15.4015 18.8825 12.827 19.0611 11.0556C19.2075 9.65426 18.7364 9.03236 17.5345 8.80376C16.8278 8.66228 16.3973 8.68586 15.6665 8.45744C14.968 8.24504 14.8137 6.96955 13.3356 7.39471C12.5235 7.63087 13.0432 9.29192 12.8482 10.5282C11.8899 16.5981 9.90017 16.7634 8.97436 13.8189C13.1325 3.93042 10.1683 0.0332271 8.4383 0.0332271C6.63533 0.0332271 4.57241 1.23797 5.4414 8.95352C5.01916 8.83544 4.88918 8.77244 4.41811 8.77244C1.7948 8.76452 0 10.8273 0 13.3702C0 15.9132 1.7948 17.976 4.42628 17.976C5.97746 17.976 7.06574 17.291 7.89406 16.236C8.43013 16.9841 9.088 17.9917 10.2899 17.9445C13.8634 17.8106 14.903 10.7013 15.0248 10.2999C15.4066 10.3548 15.772 10.4652 16.1212 10.5202C16.7061 10.6068 16.7548 10.8352 16.7384 11.4021C16.5843 16.236 17.502 17.9289 19.5892 17.9289C20.7505 17.9289 21.7901 16.8186 22.5048 16.0313C23.0408 17.1021 23.8853 17.8972 25.0306 17.9287C27.7919 17.9917 28.8558 13.7246 28.7584 14.2837C28.6852 14.7243 29.6517 17.8972 32.5024 17.913C36.027 17.9287 36.6849 14.1734 36.7581 13.5435C36.7742 13.4332 36.7662 13.4175 36.7581 13.5435V13.5828C37.8788 13.3781 38.4554 12.8034 38.4554 12.8034C38.4554 12.8034 39.3569 17.976 42.6787 17.9208C46.1303 17.8578 46.788 14.4648 46.8694 13.8033C46.8855 13.6616 46.8775 13.6458 46.8694 13.8033V13.8189C48.2012 13.3466 48.5505 12.8822 48.5505 12.8822C48.5505 12.8822 49.2652 17.9525 52.7737 17.9996C55.9005 18.039 57.0618 14.9292 57.07 13.6301C57.5978 13.6379 58.5725 13.323 58.5482 13.3074C58.5482 13.3074 59.6933 17.7399 62.8931 17.9681C64.3956 18.0783 65.5244 17.1493 66.1661 16.7243C67.6766 17.913 72.704 19.4247 75.8795 14.2049C76.3342 13.4647 75.3678 12.5751 75.1973 12.4648V12.465ZM4.2963 16.2516C2.76127 16.2516 1.77846 14.8739 1.77846 13.3938C1.77846 11.9136 2.68013 10.5357 4.21516 10.5357C4.90533 10.5357 5.2871 10.6066 5.83133 11.0631C5.92863 11.4334 6.20492 12.2914 6.34288 12.6851C6.52151 13.2048 6.7408 13.6535 6.95192 14.1338C6.63533 15.3776 5.62819 16.2516 4.2963 16.2516ZM8.03221 11.1027C7.96722 11.0003 7.98338 11.0631 7.9104 10.9688C7.6343 10.2288 7.09006 8.57534 7.02507 6.69379C6.9521 4.56798 7.31752 2.07227 8.39763 2.07227C9.12866 2.07227 9.90834 7.12669 8.03221 11.1027ZM29.6435 8.89034C29.473 7.63069 29.4649 2.00135 30.8538 2.15885C31.6253 2.45802 30.3664 7.76443 29.6435 8.89034ZM39.8198 8.89034C39.6493 7.63069 39.6411 2.00135 41.03 2.15885C41.8015 2.45802 40.5426 7.76443 39.8198 8.89034ZM49.9149 8.969C49.7443 7.70935 49.7363 2.08019 51.125 2.23751C51.8965 2.52894 50.6378 7.84327 49.9149 8.969ZM61.0576 1.82027C62.3327 1.69427 62.2759 7.08745 59.7258 10.4886C59.3926 9.26042 58.8893 2.24543 61.0576 1.82027ZM66.4179 13.433C66.0118 11.4255 67.0676 10.1106 68.1559 9.9689C68.5376 9.91382 69.0899 10.15 69.1953 10.5989C69.3741 11.4413 69.171 12.693 66.7265 14.2754C66.7347 14.2833 66.5072 13.874 66.4179 13.433ZM23.2195 7.24495C24.0885 7.24495 24.795 6.56005 24.795 5.71765C24.795 4.87524 24.0885 4.19034 23.2195 4.19034C22.3505 4.19034 21.6438 4.87524 21.6438 5.71765C21.6438 6.56005 22.3505 7.24495 23.2195 7.24495Z" fill="#A0A7AB"/>
</svg>
