<svg width="66" height="28" viewBox="0 0 66 28" fill="none" xmlns="http://www.w3.org/2000/svg">
<path d="M54.9855 1.5791V17.4892H52.6602V1.5791H54.9855Z" fill="#A0A7AB"/>
<path d="M28.2458 12.3929C28.2458 15.5186 25.8005 17.8219 22.7997 17.8219C19.7988 17.8219 17.3535 15.5186 17.3535 12.3929C17.3535 9.24513 19.7988 6.96387 22.7997 6.96387C25.8005 6.96387 28.2458 9.24513 28.2458 12.3929ZM25.8617 12.3929C25.8617 10.4396 24.4445 9.10316 22.7997 9.10316C21.1548 9.10316 19.7376 10.4396 19.7376 12.3929C19.7376 14.3266 21.1548 15.6826 22.7997 15.6826C24.4445 15.6826 25.8617 14.3241 25.8617 12.3929Z" fill="#A0A7AB"/>
<path d="M39.9939 12.3929C39.9939 15.5186 37.5486 17.8219 34.5477 17.8219C31.5468 17.8219 29.1016 15.5186 29.1016 12.3929C29.1016 9.24758 31.5468 6.96387 34.5477 6.96387C37.5486 6.96387 39.9939 9.24513 39.9939 12.3929ZM37.6098 12.3929C37.6098 10.4396 36.1926 9.10316 34.5477 9.10316C32.9028 9.10316 31.4856 10.4396 31.4856 12.3929C31.4856 14.3266 32.9028 15.6826 34.5477 15.6826C36.1926 15.6826 37.6098 14.3241 37.6098 12.3929Z" fill="#A0A7AB"/>
<path d="M51.2533 7.29186V17.0386C51.2533 21.048 48.8889 22.6855 46.0936 22.6855C43.4623 22.6855 41.8786 20.9256 41.2814 19.4863L43.3571 18.6223C43.7267 19.5059 44.6323 20.5486 46.0911 20.5486C47.8804 20.5486 48.9892 19.4447 48.9892 17.3666V16.5858H48.906C48.3724 17.2442 47.3444 17.8194 46.0471 17.8194C43.3326 17.8194 40.8457 15.455 40.8457 12.4125C40.8457 9.34793 43.3326 6.96387 46.0471 6.96387C47.3419 6.96387 48.37 7.53908 48.906 8.17793H48.9892V7.29431H51.2533V7.29186ZM49.1581 12.4125C49.1581 10.5008 47.8829 9.10316 46.26 9.10316C44.6152 9.10316 43.2371 10.5008 43.2371 12.4125C43.2371 14.3045 44.6152 15.6826 46.26 15.6826C47.8829 15.6826 49.1581 14.3045 49.1581 12.4125Z" fill="#A0A7AB"/>
<path d="M64.0466 14.1795L65.8971 15.4131C65.2998 16.2967 63.8606 17.8192 61.3737 17.8192C58.2896 17.8192 55.9863 15.4351 55.9863 12.3902C55.9863 9.16167 58.3092 6.96118 61.1069 6.96118C63.9242 6.96118 65.3023 9.20328 65.7527 10.4149L65.9999 11.0317L58.7424 14.0375C59.2981 15.1267 60.1621 15.6824 61.3737 15.6824C62.5878 15.6824 63.4298 15.0851 64.0466 14.1795ZM58.3508 12.2262L63.2022 10.2117C62.9354 9.53372 62.1325 9.06131 61.1877 9.06131C59.9761 9.06131 58.2896 10.131 58.3508 12.2262Z" fill="#A0A7AB"/>
<path d="M8.54984 10.9806V8.67733H16.3115C16.3874 9.07876 16.4266 9.55361 16.4266 10.0676C16.4266 11.7957 15.9541 13.9326 14.4317 15.455C12.9508 16.9971 11.0587 17.8195 8.55228 17.8195C3.90654 17.8195 0 14.0354 0 9.38962C0 4.74387 3.90654 0.959717 8.55228 0.959717C11.1224 0.959717 12.9533 1.96817 14.3289 3.28259L12.7036 4.90787C11.7172 3.98263 10.3807 3.26301 8.54984 3.26301C5.15732 3.26301 2.504 5.9971 2.504 9.38962C2.504 12.7821 5.15732 15.5162 8.54984 15.5162C10.7503 15.5162 12.0035 14.6326 12.8064 13.8298C13.4575 13.1787 13.8858 12.2485 14.0547 10.9782L8.54984 10.9806Z" fill="#A0A7AB"/>
<path d="M1 27.9H2.23673V25.3998H3.4968L4.83686 27.9H6.21694L4.74019 25.1932C5.54357 24.8698 5.96692 24.1831 5.96692 23.2564C5.96692 21.953 5.12688 21.0729 3.56013 21.0729H1V27.9ZM2.23673 24.3731V22.1063H3.37012C4.2935 22.1063 4.70686 22.5297 4.70686 23.2564C4.70686 23.9831 4.2935 24.3731 3.37679 24.3731H2.23673Z" fill="#A0A7AB"/>
<path d="M9.24543 28C10.4388 28 11.2589 27.4166 11.4722 26.5266L10.3455 26.3999C10.1821 26.8332 9.78212 27.0599 9.26209 27.0599C8.48205 27.0599 7.96536 26.5466 7.95536 25.6698H11.5222V25.2998C11.5222 23.5031 10.4422 22.713 9.18209 22.713C7.71535 22.713 6.75863 23.7897 6.75863 25.3698C6.75863 26.9766 7.70201 28 9.24543 28ZM7.95869 24.8565C7.99536 24.2031 8.47872 23.6531 9.19876 23.6531C9.89213 23.6531 10.3588 24.1598 10.3655 24.8565H7.95869Z" fill="#A0A7AB"/>
<path d="M16.97 22.7797H15.6866L14.5065 26.5832H14.4532L13.2765 22.7797H11.9897L13.8132 27.9H15.1466L16.97 22.7797Z" fill="#A0A7AB"/>
<path d="M17.805 27.9H19.0118V22.7797H17.805V27.9ZM18.4117 22.053C18.7951 22.053 19.1084 21.7596 19.1084 21.3996C19.1084 21.0363 18.7951 20.7429 18.4117 20.7429C18.025 20.7429 17.7117 21.0363 17.7117 21.3996C17.7117 21.7596 18.025 22.053 18.4117 22.053Z" fill="#A0A7AB"/>
<path d="M22.5194 28C23.7128 28 24.5329 27.4166 24.7462 26.5266L23.6195 26.3999C23.4562 26.8332 23.0561 27.0599 22.5361 27.0599C21.7561 27.0599 21.2394 26.5466 21.2294 25.6698H24.7962V25.2998C24.7962 23.5031 23.7162 22.713 22.4561 22.713C20.9894 22.713 20.0326 23.7897 20.0326 25.3698C20.0326 26.9766 20.976 28 22.5194 28ZM21.2327 24.8565C21.2694 24.2031 21.7527 23.6531 22.4728 23.6531C23.1661 23.6531 23.6328 24.1598 23.6395 24.8565H21.2327Z" fill="#A0A7AB"/>
<path d="M26.8463 27.9H28.1064L29.0665 24.4398H29.1365L30.0965 27.9H31.3532L32.8033 22.7797H31.5699L30.6832 26.3599H30.6332L29.7132 22.7797H28.4964L27.5764 26.3799H27.5297L26.6297 22.7797H25.3996L26.8463 27.9Z" fill="#A0A7AB"/>
<path d="M37.6927 24.1331C37.5261 23.2664 36.8327 22.713 35.6326 22.713C34.3992 22.713 33.5592 23.3197 33.5625 24.2664C33.5592 25.0131 34.0192 25.5065 35.0026 25.7098L35.876 25.8932C36.346 25.9965 36.566 26.1865 36.566 26.4765C36.566 26.8266 36.186 27.0899 35.6126 27.0899C35.0593 27.0899 34.6992 26.8499 34.5959 26.3899L33.4192 26.5032C33.5692 27.4433 34.3592 28 35.616 28C36.896 28 37.7994 27.3366 37.8027 26.3665C37.7994 25.6365 37.3294 25.1898 36.3627 24.9798L35.4893 24.7931C34.9693 24.6765 34.7626 24.4964 34.7659 24.1998C34.7626 23.8531 35.1459 23.6131 35.6493 23.6131C36.206 23.6131 36.4993 23.9164 36.5927 24.2531L37.6927 24.1331Z" fill="#A0A7AB"/>
</svg>
