<svg width="77" height="32" viewBox="0 0 77 32" fill="none" xmlns="http://www.w3.org/2000/svg">
<path d="M76.7988 13.24V31.6283H73.1358L66.4222 20.6491H66.3689V31.6283H62.3081V13.24H65.971L72.6846 24.2213H72.738V13.24H76.7988Z" fill="#010101"/>
<path fill-rule="evenodd" clip-rule="evenodd" d="M49.0944 31.6309V25.5509H50.8459L54.8 31.6309H59.2363L54.8843 25.0176C57.3611 24.1486 58.5995 22.2919 58.5995 19.4475V19.3941C58.5988 17.1918 58.0722 15.6153 57.0198 14.6645C55.9673 13.7138 54.2027 13.2384 51.7259 13.2384H44.9536V31.6309H49.0944ZM51.7501 21.9528H49.0429V16.9426H51.7501C52.7414 16.9419 53.4447 17.1418 53.86 17.5421C54.2753 17.9425 54.4829 18.5597 54.4829 19.3938V19.4472C54.4843 20.2827 54.2767 20.9092 53.86 21.3266C53.4433 21.7441 52.74 21.9528 51.7501 21.9528Z" fill="#010101"/>
<path fill-rule="evenodd" clip-rule="evenodd" d="M25.1089 22.4608C25.1089 28.8203 27.8161 32 33.2305 32C38.6442 32 41.351 28.8206 41.351 22.4619V22.4075C41.3517 16.0466 38.6449 12.8665 33.2305 12.8672C27.8161 12.8679 25.1089 16.048 25.1089 22.4075V22.4608ZM33.2294 28.3226C31.7787 28.3226 30.7611 27.8383 30.1766 26.8698C29.5928 25.9013 29.3009 24.4317 29.3009 22.4613V22.4068C29.3001 20.4328 29.5921 18.9615 30.1766 17.993C30.7611 17.0244 31.7787 16.5402 33.2294 16.5402C34.6801 16.543 35.6973 17.0287 36.2811 17.9972C36.8649 18.9658 37.1569 20.4356 37.1569 22.4068V22.4602C37.1569 24.4328 36.8649 25.9027 36.2811 26.8698C35.6973 27.8383 34.6801 28.3226 33.2294 28.3226Z" fill="#010101"/>
<path fill-rule="evenodd" clip-rule="evenodd" d="M8.53125 31.6283V13.24H15.1659C17.4308 13.24 19.1073 13.6311 20.1953 14.4133C21.2833 15.1955 21.8273 16.4478 21.8273 18.1701V18.2235C21.8273 19.219 21.5752 20.0723 21.071 20.7835C20.5668 21.4946 19.9873 21.9568 19.3323 22.1701V22.2235C20.1626 22.454 20.8974 22.944 21.4294 23.6219C21.9947 24.3237 22.2792 25.1899 22.2827 26.2203V26.2736C22.2827 29.8448 20.0089 31.6304 15.4614 31.6304L8.53125 31.6283ZM12.5938 16.7542V20.5121H15.4076C16.2738 20.5121 16.8754 20.3699 17.2124 20.0854C17.5495 19.801 17.7173 19.2858 17.7159 18.5398V18.4865C17.7159 17.8294 17.5125 17.3764 17.1058 17.1276C16.699 16.8787 16.0711 16.7542 15.222 16.7542H12.5938ZM12.5938 28.1059V23.8691L15.4866 23.8681C16.4601 23.8667 17.1502 24.0263 17.557 24.347C17.9637 24.6677 18.1671 25.2011 18.1671 25.947V26.0003C18.1671 27.4041 17.2825 28.1059 15.5132 28.1059H12.5938Z" fill="#010101"/>
<path fill-rule="evenodd" clip-rule="evenodd" d="M71.8151 9.36865V6.41825H72.3975L74.1842 9.36865H76.8039L74.7378 6.11318C75.9019 5.70572 76.4839 4.78874 76.4839 3.36225V3.33558C76.4846 2.22625 76.214 1.42554 75.6722 0.933446C75.1303 0.441357 74.2194 0.195312 72.9394 0.195312H69.3276V9.36865H71.8151ZM72.9013 4.50493H71.7919V2.25H72.9013C73.3333 2.25 73.6298 2.33427 73.7877 2.50173C73.9469 2.67098 74.0266 2.95009 74.0266 3.33907V3.36573C74.023 3.74405 73.9413 4.02849 73.7813 4.21907C73.6213 4.40965 73.3279 4.50493 72.9013 4.50493Z" fill="#010101"/>
<path d="M65.017 0.199579V2.29878H61.2324V3.72065H64.6458V5.68758H61.2324V7.26838H65.0724V9.36865H58.7322V0.195312L65.017 0.199579Z" fill="#010101"/>
<path d="M54.4851 0.198608V2.36501H51.971V9.36768H49.4835V2.36501H46.9822V0.198608H54.4851Z" fill="#010101"/>
<path d="M39.1241 5.78027L38.3433 5.648C37.2574 5.44391 36.4698 5.13138 35.9806 4.7104C35.4913 4.28942 35.2467 3.632 35.2467 2.73813V2.71147C35.2467 0.903823 36.4286 0 38.7923 0C40.0361 0 40.9381 0.235022 41.4985 0.705067C42.0588 1.17511 42.3657 1.87022 42.419 2.7904H40.0105C39.9571 2.25067 39.56 1.98045 38.819 1.97973C38.078 1.97902 37.7033 2.21405 37.6947 2.6848V2.71147C37.6927 2.93798 37.8158 3.14714 38.0147 3.25547C38.2281 3.38916 38.59 3.50436 39.1006 3.60107L39.9475 3.76107C40.9267 3.93813 41.6378 4.23929 42.0809 4.66454C42.5239 5.08978 42.7443 5.70987 42.7422 6.5248V6.55147C42.7422 7.60534 42.4247 8.37156 41.7897 8.85014C41.1546 9.32872 40.2238 9.56765 38.9971 9.56694C37.71 9.56694 36.7465 9.2992 36.1065 8.76374C35.4665 8.22827 35.1244 7.40231 35.0803 6.28587H37.4889C37.5244 6.70187 37.6698 7.02187 37.9251 7.24587C38.1804 7.46987 38.5335 7.58045 38.9843 7.5776C39.47 7.5776 39.8096 7.50898 40.003 7.37174C40.1971 7.23414 40.2942 7.0112 40.2942 6.7008V6.67414C40.2999 6.46493 40.2066 6.26527 40.0425 6.13547C39.8732 5.9968 39.5671 5.8784 39.1241 5.78027Z" fill="#010101"/>
<path fill-rule="evenodd" clip-rule="evenodd" d="M27.6956 0.199341H25.1025L21.9526 9.37268H24.4806L24.983 7.65854H27.815L28.3046 9.37268H30.8326L27.6956 0.199341ZM27.2309 5.74107H25.5509L26.3839 2.7384H26.4106L27.2309 5.74107Z" fill="#010101"/>
<path d="M13.661 7.36661H12.5623L11.0007 4.19008H10.9751V9.37301H8.53564V0.199675H11.1287L13.1223 4.23808L15.1074 0.198608H17.7015V9.37195H15.262V4.18474H15.2354L13.661 7.36661Z" fill="#010101"/>
<rect y="0.198608" width="3.6576" height="31.4272" fill="#F7CA18"/>
</svg>
