<svg xmlns="http://www.w3.org/2000/svg" width="90" height="38" viewBox="0 0 90 38">
    <g fill="none" fill-rule="evenodd">
        <g fill="#434343" fill-rule="nonzero">
            <g>
                <g>
                    <path d="M90 15.631L90 37.18 85.707 37.18 77.84 24.314 77.778 24.314 77.778 37.18 73.019 37.18 73.019 15.631 77.311 15.631 85.179 28.5 85.241 28.5 85.241 15.631zM57.541 30.06v7.125H52.69V15.631h7.936c2.903 0 4.97.557 6.204 1.671 1.233 1.115 1.85 2.962 1.851 5.543v.063c0 3.333-1.451 5.509-4.354 6.527l5.1 7.75h-5.198l-4.634-7.125H57.54zm-.062-4.216h3.172c1.16 0 1.984-.245 2.473-.734.488-.49.731-1.223.73-2.203v-.062c0-.977-.244-1.7-.73-2.17-.487-.47-1.311-.703-2.473-.703H57.48v5.872zM38.934 37.616c-6.345 0-9.518-3.726-9.518-11.178v-.063c0-7.453 3.173-11.18 9.518-11.18 6.345 0 9.517 3.726 9.516 11.18v.064c0 7.451-3.172 11.177-9.516 11.177zm-3.578-6.011c.685 1.135 1.878 1.702 3.578 1.702s2.892-.567 3.576-1.702c.684-1.133 1.026-2.856 1.026-5.168v-.062c0-2.31-.342-4.032-1.026-5.168-.684-1.134-1.876-1.704-3.576-1.707-1.7 0-2.893.567-3.578 1.703-.685 1.134-1.027 2.859-1.026 5.172v.064c0 2.309.342 4.031 1.026 5.166zM10 37.18V15.631h7.775c2.654 0 4.619.459 5.894 1.375 1.275.917 1.912 2.384 1.912 4.403v.062c0 1.167-.295 2.167-.886 3-.59.834-1.27 1.375-2.038 1.625v.063c.973.27 1.835.844 2.458 1.639.663.822.996 1.837 1 3.045v.062c0 4.185-2.665 6.277-7.994 6.277L10 37.18zm4.759-17.43v4.404h3.297c1.015 0 1.72-.167 2.115-.5.395-.334.592-.937.59-1.811v-.063c0-.77-.238-1.3-.715-1.593-.476-.291-1.212-.437-2.207-.437h-3.08zm0 8.339v4.965h3.421c2.073 0 3.11-.823 3.11-2.468v-.062c0-.874-.238-1.5-.715-1.875-.477-.376-1.285-.563-2.426-.562l-3.39.002zM84.154 7.638v3.457h-2.915V.345h4.232c1.5 0 2.568.288 3.203.865.635.577.952 1.515.951 2.815v.031c0 1.672-.682 2.747-2.046 3.224L90 11.095h-3.07l-2.094-3.458h-.682zm-.029-2.243h1.3c.5 0 .844-.112 1.031-.335.188-.223.284-.557.288-1v-.031c0-.456-.094-.783-.28-.982-.185-.196-.533-.295-1.039-.295h-1.3v2.643zM76.196.35L76.196 2.81 71.761 2.81 71.761 4.476 75.761 4.476 75.761 6.781 71.761 6.781 71.761 8.634 76.261 8.634 76.261 11.095 68.831 11.095 68.831.345zM63.851.35L63.851 2.889 60.905 2.889 60.905 11.095 57.99 11.095 57.99 2.889 55.059 2.889 55.059.35zM45.846 6.89l-.915-.155c-1.272-.24-2.195-.605-2.768-1.099-.574-.493-.86-1.264-.86-2.311v-.031c0-2.119 1.385-3.178 4.155-3.178 1.457 0 2.514.276 3.17.827.657.55 1.017 1.365 1.08 2.443h-2.823c-.063-.632-.528-.949-1.396-.95-.869 0-1.308.275-1.318.827v.03c-.002.266.142.511.375.638.25.157.674.292 1.273.405l.992.188c1.148.207 1.981.56 2.5 1.058.52.499.778 1.226.775 2.18v.032c0 1.235-.372 2.133-1.116 2.694-.744.56-1.835.84-3.273.84-1.508 0-2.637-.314-3.387-.942-.75-.627-1.15-1.595-1.203-2.903h2.823c.042.487.212.862.511 1.125.3.262.713.392 1.241.388.57 0 .968-.08 1.194-.241.228-.161.342-.423.342-.786v-.032c.006-.245-.103-.479-.296-.63-.198-.163-.557-.302-1.076-.417zM29.406.35h3.039l3.676 10.75H33.16l-.574-2.009h-3.319l-.588 2.009h-2.963L29.406.35zm.528 6.494h1.968l-.96-3.519h-.032l-.976 3.519zM16.006 8.75L14.719 8.75 12.889 5.027 12.859 5.027 12.859 11.101 10 11.101 10 .351 13.039.351 15.375 5.084 17.701.35 20.741.35 20.741 11.1 17.883 11.1 17.883 5.021 17.851 5.021zM0 .35H4.286V37.179H0z" transform="translate(-130 -5562) translate(0 5277) translate(130 285)"/>
                </g>
            </g>
        </g>
    </g>
</svg>
